<?xml version="1.0" encoding="utf-8"?>
<!-- Generator: Adobe Illustrator 16.0.0, SVG Export Plug-In . SVG Version: 6.00 Build 0)  -->
<!DOCTYPE svg PUBLIC "-//W3C//DTD SVG 1.1//EN" "http://www.w3.org/Graphics/SVG/1.1/DTD/svg11.dtd">
<svg version="1.1" id="Layer_1" xmlns="http://www.w3.org/2000/svg" xmlns:xlink="http://www.w3.org/1999/xlink" x="0px" y="0px"
	 width="150px" height="30px" viewBox="0 5 150 30" enable-background="new 0 5 150 30" xml:space="preserve">
<desc>Created with Lunacy</desc>
<g>
	<g>
		<g id="clay_shop_logo_1_">
			<g id="clay_shop_logo" transform="translate(0 1)">
				<g id="ClayBeau" transform="translate(38 0)">
					<path fill="#1B2437" d="M18.907,24.94V5.521c-0.413,0.131-0.867,0.229-1.363,0.294s-1.016,0.099-1.56,0.099
						c-0.563,0-1.143-0.027-1.742-0.085V6.42c0.824,0,1.386,0.202,1.686,0.604c0.3,0.403,0.449,1.024,0.449,1.869V24.94
						c0,0.785-0.163,1.322-0.491,1.601c-0.328,0.283-0.876,0.424-1.644,0.424v0.59c0.318-0.02,0.805-0.042,1.461-0.072
						c0.656-0.025,1.302-0.04,1.939-0.04c0.656,0,1.308,0.015,1.953,0.04c0.647,0.03,1.129,0.055,1.448,0.072v-0.59
						c-0.768,0-1.316-0.141-1.644-0.424C19.071,26.263,18.907,25.726,18.907,24.94z M7.764,7.811
						c-0.796-0.364-1.813-0.547-3.05-0.547c-1.743,0-3.284,0.439-4.623,1.319c-1.34,0.882-2.394,2.108-3.162,3.683
						c-0.767,1.573-1.152,3.409-1.152,5.508c0,2.136,0.37,3.962,1.11,5.48c0.74,1.518,1.78,2.679,3.12,3.483
						c1.34,0.806,2.898,1.208,4.679,1.208c1.218,0,2.216-0.183,2.993-0.547c0.777-0.365,1.513-0.792,2.207-1.279
						c0.412-0.263,0.707-0.291,0.885-0.084c0.179,0.206,0.304,0.713,0.379,1.519h0.646c-0.037-0.712-0.066-1.589-0.084-2.63
						c-0.019-1.037-0.028-2.412-0.028-4.115h-0.646c-0.131,1.143-0.276,2.033-0.436,2.67c-0.16,0.638-0.445,1.229-0.857,1.77
						C9.22,26,8.499,26.541,7.581,26.879s-1.799,0.507-2.642,0.507c-0.899,0-1.738-0.212-2.515-0.632
						c-0.778-0.422-1.452-1.045-2.023-1.869c-0.571-0.824-1.017-1.842-1.335-3.051c-0.318-1.208-0.478-2.598-0.478-4.173
						c0-1.518,0.146-2.886,0.436-4.103c0.291-1.22,0.703-2.257,1.237-3.12c0.534-0.862,1.17-1.522,1.911-1.98
						c0.74-0.459,1.569-0.688,2.487-0.688c0.974,0,1.901,0.173,2.782,0.52s1.612,0.903,2.193,1.671
						c0.262,0.337,0.473,0.676,0.632,1.013c0.159,0.337,0.294,0.743,0.407,1.222c0.112,0.479,0.234,1.12,0.365,1.925h0.646
						c0-1.63,0.009-2.939,0.028-3.934c0.019-0.993,0.047-1.835,0.084-2.529H11.15c-0.075,0.806-0.21,1.316-0.408,1.532
						c-0.196,0.215-0.482,0.182-0.856-0.099C9.267,8.604,8.56,8.177,7.764,7.811z M51,7.656c0.393,0.019,0.909,0.037,1.546,0.056
						c0.638,0.019,1.265,0.029,1.882,0.029c0.881,0,1.725-0.011,2.53-0.029c0.808-0.019,1.375-0.027,1.715-0.027
						c1.968,0,3.447,0.413,4.438,1.236c0.992,0.824,1.49,1.882,1.49,3.176c0,0.655-0.138,1.297-0.406,1.925
						c-0.271,0.627-0.723,1.199-1.35,1.714c-0.629,0.516-1.468,0.933-2.516,1.251v0.056c1.479,0.188,2.638,0.538,3.47,1.054
						c0.834,0.515,1.421,1.119,1.757,1.813c0.338,0.694,0.506,1.424,0.506,2.192c0,1.593-0.595,2.899-1.785,3.919
						c-1.188,1.021-2.842,1.533-4.959,1.533c-0.412,0-1.029-0.014-1.855-0.042c-0.822-0.03-1.816-0.044-2.979-0.044
						c-0.654,0-1.303,0.006-1.938,0.014c-0.637,0.012-1.153,0.034-1.546,0.072v-0.563c0.637-0.036,1.121-0.112,1.448-0.224
						c0.327-0.113,0.547-0.338,0.661-0.676c0.111-0.338,0.168-0.844,0.168-1.518V10.636c0-0.693-0.057-1.204-0.168-1.531
						c-0.114-0.328-0.334-0.553-0.661-0.675C52.121,8.309,51.637,8.237,51,8.219V7.656z M57.971,8.219
						c-0.861,0-1.425,0.159-1.688,0.479c-0.262,0.318-0.395,0.965-0.395,1.939v6.352h1.885c1.104,0,1.959-0.211,2.558-0.633
						c0.601-0.421,1.01-0.983,1.237-1.687c0.225-0.703,0.336-1.456,0.336-2.263c0-1.386-0.305-2.431-0.913-3.134
						C60.382,8.57,59.376,8.219,57.971,8.219z M26.242,27.75c-1.218,0-2.103-0.306-2.656-0.914c-0.553-0.607-0.829-1.418-0.829-2.43
						c0-0.787,0.192-1.438,0.577-1.953c0.384-0.517,0.875-0.938,1.475-1.265c0.6-0.329,1.233-0.61,1.897-0.845
						c0.665-0.233,1.297-0.466,1.897-0.688c0.599-0.224,1.091-0.478,1.475-0.76c0.385-0.279,0.577-0.635,0.577-1.066v-1.743
						c0-0.787-0.118-1.386-0.352-1.798c-0.233-0.413-0.547-0.688-0.941-0.83c-0.394-0.14-0.834-0.21-1.321-0.21
						c-0.468,0-0.969,0.065-1.503,0.196c-0.535,0.132-0.96,0.403-1.279,0.814c0.355,0.074,0.665,0.263,0.927,0.563
						c0.262,0.299,0.394,0.684,0.394,1.151c0,0.469-0.149,0.84-0.45,1.109c-0.299,0.272-0.684,0.407-1.152,0.407
						c-0.543,0-0.941-0.173-1.195-0.519c-0.252-0.348-0.38-0.737-0.38-1.167c0-0.487,0.122-0.881,0.366-1.181
						c0.244-0.299,0.553-0.581,0.927-0.843c0.431-0.3,0.989-0.558,1.672-0.772c0.685-0.216,1.457-0.323,2.318-0.323
						c0.769,0,1.424,0.089,1.968,0.267c0.544,0.179,0.992,0.437,1.349,0.773c0.488,0.449,0.804,0.998,0.957,1.644
						c0.148,0.646,0.223,1.42,0.223,2.319v7.813c0,0.447,0.066,0.779,0.198,0.996c0.131,0.217,0.356,0.324,0.675,0.324
						c0.263,0,0.49-0.057,0.688-0.17c0.198-0.113,0.389-0.253,0.578-0.422l0.308,0.477c-0.393,0.303-0.769,0.551-1.123,0.746
						c-0.356,0.197-0.834,0.297-1.435,0.297c-0.972,0-1.622-0.254-1.94-0.761c-0.317-0.506-0.476-1.087-0.476-1.743
						c-0.6,0.994-1.279,1.658-2.038,1.998C27.857,27.58,27.066,27.75,26.242,27.75z M78.837,14.19
						c-0.928-1.003-2.214-1.504-3.864-1.504c-1.271,0-2.392,0.324-3.344,0.969c-0.955,0.647-1.695,1.565-2.221,2.755
						c-0.524,1.189-0.787,2.608-0.787,4.258c0,1.424,0.257,2.685,0.773,3.778c0.515,1.099,1.256,1.954,2.219,2.571
						c0.964,0.619,2.123,0.928,3.473,0.928c0.938,0,1.76-0.183,2.471-0.547c0.715-0.365,1.307-0.838,1.772-1.419
						s0.808-1.181,1.01-1.799l-0.563-0.226c-0.484,1.049-1.086,1.779-1.795,2.19c-0.713,0.414-1.489,0.62-2.332,0.62
						c-0.713,0-1.403-0.239-2.067-0.719c-0.664-0.477-1.203-1.176-1.615-2.094c-0.411-0.918-0.616-2.014-0.616-3.287
						c0-0.338,0.008-0.674,0.026-1.013c0.015-0.281,0.038-0.545,0.065-0.786h8.787C80.229,16.752,79.764,15.192,78.837,14.19z
						 M86.129,27.75c-1.216,0-2.104-0.306-2.654-0.914c-0.555-0.607-0.83-1.418-0.83-2.43c0-0.787,0.192-1.438,0.578-1.953
						c0.381-0.517,0.873-0.938,1.475-1.265c0.601-0.329,1.23-0.61,1.896-0.845c0.665-0.233,1.297-0.466,1.896-0.688
						c0.601-0.224,1.091-0.478,1.478-0.76c0.382-0.279,0.575-0.635,0.575-1.066v-1.743c0-0.787-0.119-1.386-0.354-1.798
						c-0.232-0.413-0.547-0.688-0.939-0.83c-0.395-0.14-0.834-0.21-1.322-0.21c-0.467,0-0.968,0.065-1.503,0.196
						c-0.532,0.132-0.961,0.403-1.278,0.814c0.357,0.074,0.666,0.263,0.928,0.563c0.263,0.299,0.395,0.684,0.395,1.151
						c0,0.469-0.15,0.84-0.449,1.109c-0.299,0.272-0.685,0.407-1.152,0.407c-0.543,0-0.942-0.173-1.193-0.519
						c-0.254-0.348-0.38-0.737-0.38-1.167c0-0.487,0.121-0.881,0.365-1.181c0.241-0.299,0.552-0.581,0.926-0.843
						c0.433-0.3,0.989-0.558,1.675-0.772c0.684-0.216,1.456-0.323,2.317-0.323c0.769,0,1.424,0.089,1.968,0.267
						c0.543,0.179,0.993,0.437,1.348,0.773c0.488,0.449,0.808,0.998,0.957,1.644c0.148,0.646,0.224,1.42,0.224,2.319v7.813
						c0,0.447,0.065,0.779,0.196,0.996c0.133,0.217,0.357,0.324,0.676,0.324c0.264,0,0.49-0.057,0.688-0.17s0.39-0.253,0.577-0.422
						l0.311,0.477c-0.396,0.303-0.77,0.551-1.125,0.746c-0.356,0.197-0.834,0.297-1.436,0.297c-0.972,0-1.619-0.254-1.939-0.761
						c-0.315-0.506-0.476-1.087-0.476-1.743c-0.601,0.994-1.28,1.658-2.038,1.998C87.746,27.58,86.955,27.75,86.129,27.75z
						 M109.582,26.387c-0.313-0.402-0.462-1.025-0.462-1.868V12.771c-0.414,0.13-0.868,0.229-1.365,0.295
						c-0.497,0.065-1.017,0.098-1.56,0.098c-0.563,0-1.143-0.026-1.743-0.083v0.59c0.825,0,1.386,0.201,1.687,0.605
						c0.301,0.402,0.449,1.025,0.449,1.868v5.816c0,1.425-0.355,2.629-1.068,3.612c-0.711,0.984-1.621,1.476-2.725,1.476
						c-0.675,0-1.161-0.151-1.46-0.45c-0.302-0.3-0.487-0.693-0.565-1.181c-0.074-0.487-0.111-1.021-0.111-1.601V12.771
						c-0.409,0.13-0.866,0.229-1.362,0.295c-0.497,0.065-1.015,0.098-1.562,0.098c-0.562,0-1.142-0.026-1.739-0.083v0.59
						c0.823,0,1.386,0.201,1.687,0.605c0.299,0.402,0.449,1.025,0.449,1.868v7.052c0,0.882,0.064,1.622,0.195,2.222
						s0.375,1.086,0.73,1.461c0.318,0.338,0.723,0.6,1.209,0.787c0.487,0.188,1.06,0.28,1.715,0.28c0.899,0,1.775-0.258,2.627-0.772
						c0.852-0.514,1.515-1.381,1.98-2.598v3.315c0.413-0.151,0.868-0.254,1.364-0.312c0.495-0.055,1.015-0.082,1.558-0.082
						c0.582,0,1.163,0.027,1.745,0.082v-0.59C110.448,26.991,109.893,26.791,109.582,26.387z M49.538,13.644v-0.563
						c-0.3,0.019-0.622,0.037-0.968,0.057c-0.346,0.019-0.736,0.026-1.168,0.026s-0.812-0.008-1.137-0.026
						c-0.33-0.02-0.738-0.039-1.224-0.057v0.563c0.991,0.075,1.63,0.299,1.912,0.674c0.278,0.375,0.241,1.031-0.114,1.967
						l-3.109,8.132l-3.381-8.385c-0.318-0.788-0.432-1.345-0.338-1.673s0.322-0.524,0.689-0.59c0.363-0.066,0.781-0.1,1.25-0.1
						v-0.59c-0.563,0.037-1.167,0.075-1.814,0.112c-0.646,0.037-1.259,0.056-1.84,0.056c-0.523,0-1.013-0.015-1.46-0.042
						c-0.45-0.027-0.881-0.069-1.295-0.126v0.59c0.225,0,0.512,0.08,0.857,0.239c0.348,0.159,0.698,0.604,1.055,1.335l5.096,12.271
						l-0.993,2.567c-0.3,0.769-0.646,1.324-1.037,1.67c-0.396,0.349-0.846,0.521-1.351,0.521h-0.071
						c-0.027,0-0.061-0.01-0.099-0.027c0.206-0.111,0.384-0.271,0.535-0.478c0.147-0.206,0.225-0.47,0.225-0.788
						c0-0.43-0.14-0.759-0.422-0.982c-0.28-0.224-0.62-0.338-1.013-0.338c-0.467,0-0.834,0.137-1.095,0.409
						c-0.262,0.271-0.393,0.632-0.393,1.081c0,0.355,0.083,0.659,0.252,0.913c0.168,0.252,0.396,0.444,0.689,0.576
						c0.291,0.131,0.613,0.196,0.968,0.196c0.338,0,0.714-0.053,1.123-0.155c0.414-0.103,0.769-0.295,1.069-0.575
						c0.449-0.395,0.854-1.05,1.207-1.968l0.955-2.444l4.61-12.084c0.261-0.712,0.543-1.209,0.843-1.49
						C48.854,13.839,49.184,13.681,49.538,13.644z M27.478,26.625c0.562,0,1.115-0.162,1.657-0.49
						c0.544-0.329,1.05-0.877,1.519-1.646v-5.508c-0.282,0.41-0.717,0.739-1.307,0.982c-0.59,0.244-1.199,0.512-1.827,0.803
						c-0.627,0.291-1.166,0.682-1.616,1.179c-0.449,0.497-0.674,1.204-0.674,2.121c0,0.862,0.215,1.506,0.646,1.928
						C26.308,26.414,26.841,26.625,27.478,26.625z M87.366,26.625c0.561,0,1.114-0.162,1.657-0.49
						c0.543-0.329,1.049-0.877,1.519-1.646v-5.508c-0.28,0.41-0.718,0.739-1.308,0.982c-0.59,0.244-1.199,0.512-1.827,0.803
						c-0.626,0.291-1.166,0.682-1.613,1.179c-0.452,0.497-0.677,1.204-0.677,2.121c0,0.862,0.216,1.506,0.646,1.928
						C86.195,26.414,86.729,26.625,87.366,26.625z"/>
				</g>
			</g>
		</g>
		<path fill="#EDA3B5" d="M93.889,25.576v-7.111h2.362c1.78,0,3.06,0.394,3.837,1.182c0.777,0.787,1.165,1.899,1.165,3.345
			c0,1.572-0.416,2.786-1.25,3.638c-0.834,0.854-2.167,1.278-4.005,1.278c-0.861,0-1.43-0.145-1.7-0.435
			S93.889,26.549,93.889,25.576z"/>
		<path fill="#EDA3B5" d="M109.396,19.335h6.133c0.037-0.919-0.036-1.766-0.225-2.543c-0.188-0.777-0.482-1.399-0.885-1.869
			c-0.402-0.468-0.925-0.702-1.561-0.702c-0.861,0-1.625,0.431-2.293,1.293C109.938,16.331,109.548,17.604,109.396,19.335z"/>
	</g>
	<path id="logo" fill="#1B2437" d="M25.491,20.524h0.015V6.164h-12.88c-7.115,0-12.881,6.126-12.881,13.687
		c0,7.56,5.767,13.687,12.881,13.687C19.526,33.535,25.16,27.77,25.491,20.524z M1.892,19.85c0-6.298,4.806-11.405,10.734-11.405
		h10.733v9.799H11.553v12.953C6.128,30.625,1.892,25.763,1.892,19.85z M23.341,20.524c-0.308,5.604-4.426,10.123-9.642,10.673
		V20.524H23.341z"/>
</g>
</svg>
